<svg version="1.1" id="pickles2-logo" xmlns="http://www.w3.org/2000/svg" xmlns:xlink="http://www.w3.org/1999/xlink" x="0px"
	 y="0px" viewBox="0 0 40 40" style="enable-background:new 0 0 40 40;" xml:space="preserve">
<style type="text/css">
	.st0{fill:#f6f6f6;}
</style>
<g>
	<g>
		<path class="st0" d="M24,0.4C22.7,0.1,21.4,0,20,0c-1.4,0-2.7,0.1-4,0.4C6.9,2.2,0,10.3,0,20c0,7.9,4.6,14.8,11.3,18
			c2.6,1.3,5.6,2,8.7,2c3.1,0,6-0.7,8.5-1.9C35.3,34.9,40,28,40,20C40,10.3,33.1,2.3,24,0.4z M27.4,36.1c-2.2,1-4.7,1.6-7.4,1.6
			c-2.7,0-5.2-0.6-7.5-1.7C6.5,33.3,2.3,27.1,2.3,20c0-8.7,6.2-15.9,14.4-17.4c1.1-0.2,2.2-0.3,3.3-0.3c1.1,0,2.3,0.1,3.3,0.3
			c8.2,1.6,14.4,8.8,14.4,17.4C37.7,27.2,33.5,33.3,27.4,36.1z"/>
	</g>
	<g>
		<path class="st0" d="M34.8,16.8c0-0.9-0.4-1.6-1-2.2c0.1-0.2,0.1-0.5,0.1-0.8c0-1.6-1.2-2.9-2.8-3.2c0-0.1,0-0.1,0-0.2
			c0-1.8-1.6-3.2-3.5-3.2c-0.6,0-1.2,0.2-1.7,0.4c-0.3-1.4-1-2.5-2.1-3.4c-0.2-0.2-0.5-0.3-0.7-0.5c-0.9-0.5-1.9-0.8-3.1-0.8
			c-1.1,0-2.1,0.3-3,0.8c-0.3,0.2-0.5,0.3-0.8,0.5c-1,0.8-1.8,2-2.1,3.4c-0.5-0.3-1.1-0.4-1.7-0.4c-1.9,0-3.5,1.4-3.5,3.2
			c0,0.1,0,0.1,0,0.2c-1.6,0.3-2.8,1.6-2.8,3.2c0,0.3,0,0.5,0.1,0.8c-0.6,0.6-1,1.4-1,2.2c0,0.8,0.3,1.5,0.8,2.1
			c-0.5,0.5-0.8,1.2-0.8,1.9c0,1.2,0.7,2.1,1.8,2.6c0.2,1.2,1.4,2.1,2.7,2.1c0.5,0,0.9-0.1,1.3-0.3c0.4,0.2,0.8,0.4,1.3,0.4
			c0.4,0,0.8-0.1,1.1-0.3c0.3,0.2,0.6,0.3,1,0.3c0.3,0,0.6-0.1,0.9-0.2c0.2,0.1,0.5,0.2,0.8,0.2c0.3,0,0.5-0.1,0.8-0.2
			c-0.9,3.3-2.1,6.5-3.7,9.5c2.1,0.9,4.4,1.5,6.8,1.5c2.4,0,4.6-0.5,6.7-1.4c-1.6-3-2.8-6.2-3.7-9.5c0.2,0.1,0.5,0.2,0.8,0.2
			c0.3,0,0.6-0.1,0.8-0.2c0.3,0.1,0.6,0.2,0.9,0.2c0.4,0,0.7-0.1,1-0.3c0.3,0.2,0.7,0.3,1.1,0.3c0.5,0,0.9-0.1,1.3-0.4
			c0.4,0.2,0.8,0.3,1.3,0.3c1.4,0,2.5-0.9,2.7-2.1c1-0.5,1.8-1.5,1.8-2.6c0-0.7-0.3-1.4-0.8-1.9C34.5,18.3,34.8,17.5,34.8,16.8z"/>
	</g>
</g>
</svg>
